<?xml version="1.0" encoding="utf-8"?>
<!-- Generator: Adobe Illustrator 22.0.1, SVG Export Plug-In . SVG Version: 6.00 Build 0)  -->
<!DOCTYPE svg PUBLIC "-//W3C//DTD SVG 1.1//EN" "http://www.w3.org/Graphics/SVG/1.1/DTD/svg11.dtd">
<svg version="1.1" id="Layer_1" xmlns="http://www.w3.org/2000/svg" xmlns:xlink="http://www.w3.org/1999/xlink" x="0px" y="0px"
	 viewBox="0 0 250 42" style="enable-background:new 0 0 250 42;" xml:space="preserve">
<style type="text/css">
	.st0{fill:#FFFFFF;}
	.st1{filter:url(#Adobe_OpacityMaskFilter);}
	.st2{mask:url(#b_1_);fill:#FFFFFF;}
	.st3{filter:url(#Adobe_OpacityMaskFilter_1_);}
	.st4{mask:url(#b_6_);fill:#FFFFFF;}
	.st5{filter:url(#Adobe_OpacityMaskFilter_2_);}
	.st6{mask:url(#b_3_);fill:#FFFFFF;}
	.st7{filter:url(#Adobe_OpacityMaskFilter_3_);}
	.st8{mask:url(#b_8_);fill:#FFFFFF;}
	.st9{filter:url(#Adobe_OpacityMaskFilter_4_);}
	.st10{mask:url(#b_5_);fill:#FFFFFF;}
	.st11{filter:url(#Adobe_OpacityMaskFilter_5_);}
	.st12{mask:url(#b_9_);fill:#FFFFFF;}
	.st13{filter:url(#Adobe_OpacityMaskFilter_6_);}
	.st14{mask:url(#b_7_);fill:#FFFFFF;}
	.st15{filter:url(#Adobe_OpacityMaskFilter_7_);}
	.st16{mask:url(#b_10_);fill:#FFFFFF;}
</style>
<title>LOGO</title>
<g transform="translate(1 1)">
	<path class="st0" d="M0,33.8l4.4-6.4c2.6,2.8,6.8,5.3,11.9,5.3c4.4,0,6.5-2,6.5-4.3c0-6.7-21.6-2-21.6-16.6C1.2,5.3,6.6,0,15.5,0
		c6,0,10.9,1.9,14.6,5.4l-4.4,6.2c-3-2.9-7.1-4.2-10.9-4.2c-3.4,0-5.3,1.5-5.3,3.8c0,6.1,21.5,2,21.5,16.4C31,34.7,26,40,16,40
		C8.7,40,3.5,37.5,0,33.8z"/>
	<path class="st0" d="M16,40.5c-6.8,0-12.3-2.1-16.3-6.3l-0.3-0.3l5-7.3l0.4,0.5c1.8,1.9,5.6,5.1,11.6,5.1c3.7,0,6-1.5,6-3.8
		c0-2.3-3.4-3.2-7.4-4.1C8.6,22.8,0.7,20.9,0.7,11.8c0-7.1,6.2-12.3,14.7-12.3c6.1,0,11.1,1.9,15,5.5l0.3,0.3l-5,7l-0.4-0.4
		c-2.7-2.6-6.6-4.1-10.6-4.1c-3,0-4.8,1.2-4.8,3.3c0,2,3.2,2.8,7,3.7c6.1,1.5,14.5,3.6,14.5,12.7C31.5,35.5,25.6,40.5,16,40.5z
		 M0.6,33.8c3.8,3.8,9,5.7,15.3,5.7c9.1,0,14.5-4.5,14.5-11.9c0-8.4-7.6-10.2-13.8-11.7c-4.2-1-7.8-1.9-7.8-4.7
		c0-2.7,2.2-4.3,5.8-4.3c4,0,8,1.4,10.8,4l3.9-5.3c-3.6-3.3-8.3-5-14-5C7.4,0.5,1.7,5.1,1.7,11.8c0,8.3,7.2,10,13.5,11.5
		c4.4,1.1,8.1,2,8.1,5.1c0,2.2-1.8,4.8-7,4.8c-5.9,0-9.8-2.9-11.9-5L0.6,33.8z"/>
	<path class="st0" d="M61.9,40V23.6H44V40h-8V1h8v15.3h17.9V1H70v39H61.9z"/>
	<path class="st0" d="M70.5,40.5h-9.1V24.1H44.5v16.4h-9v-40h9v15.3h16.9V0.5h9.1V40.5z M62.4,39.5h7.1v-38h-7.1v15.3H43.5V1.5h-7
		v38h7V23.1h18.9V39.5z"/>
	<path class="st0" d="M139.9,13.6c0-3.3-2.4-5.3-5.5-5.3h-8.4v10.5h8.4C137.5,18.8,139.9,16.8,139.9,13.6L139.9,13.6z M118,40V1
		h17.5c8.1,0,12.5,5.7,12.5,12.6c0,6.8-4.5,12.5-12.5,12.5h-9.5V40H118z"/>
	<path class="st0" d="M126.4,40.5h-8.9v-40h18c9,0,13,6.6,13,13.1c0,7.7-5.4,13-13,13h-9V40.5z M118.5,39.5h6.9V25.6h10
		c8.3,0,12-6,12-12c0-6-3.7-12.1-12-12.1h-17V39.5z M134.3,19.3h-8.9V7.8h8.9c3.6,0,6,2.4,6,5.8C140.4,16.9,137.9,19.3,134.3,19.3z
		 M126.4,18.3h7.9c3,0,5-1.9,5-4.7c0-2.8-2-4.8-5-4.8h-7.9V18.3z"/>
	<path class="st0" d="M153,40V1h3.3v36H175v3H153z"/>
	<path class="st0" d="M175.5,40.5h-23v-40h4.3v36h18.7V40.5z M153.5,39.5h21v-2h-18.7v-36h-2.3V39.5z"/>
	<defs>
		<filter id="Adobe_OpacityMaskFilter" filterUnits="userSpaceOnUse" x="179" y="1" width="3" height="39">
			<feColorMatrix  type="matrix" values="1 0 0 0 0  0 1 0 0 0  0 0 1 0 0  0 0 0 1 0"/>
		</filter>
	</defs>
	<mask maskUnits="userSpaceOnUse" x="179" y="1" width="3" height="39" id="b_1_">
		<g class="st1">
			<path id="a_1_" class="st0" d="M0,40h249V0H0V40z"/>
		</g>
	</mask>
	<path class="st2" d="M179,40h3V1h-3V40z"/>
	<defs>
		<filter id="Adobe_OpacityMaskFilter_1_" filterUnits="userSpaceOnUse" x="178.5" y="0.5" width="4" height="40">
			<feColorMatrix  type="matrix" values="1 0 0 0 0  0 1 0 0 0  0 0 1 0 0  0 0 0 1 0"/>
		</filter>
	</defs>
	<mask maskUnits="userSpaceOnUse" x="178.5" y="0.5" width="4" height="40" id="b_6_">
		<g class="st3">
			<path id="a_6_" class="st0" d="M0,40h249V0H0V40z"/>
		</g>
	</mask>
	<path class="st4" d="M182.5,40.5h-4v-40h4V40.5z M179.5,39.5h2v-38h-2V39.5z"/>
	<defs>
		<filter id="Adobe_OpacityMaskFilter_2_" filterUnits="userSpaceOnUse" x="188" y="1" width="30" height="39">
			<feColorMatrix  type="matrix" values="1 0 0 0 0  0 1 0 0 0  0 0 1 0 0  0 0 0 1 0"/>
		</filter>
	</defs>
	<mask maskUnits="userSpaceOnUse" x="188" y="1" width="30" height="39" id="b_3_">
		<g class="st5">
			<path id="a_3_" class="st0" d="M0,40h249V0H0V40z"/>
		</g>
	</mask>
	<path class="st6" d="M214.8,40L191.2,6.5V40H188V1h3.3l23.5,33V1h3.2v39H214.8z"/>
	<defs>
		<filter id="Adobe_OpacityMaskFilter_3_" filterUnits="userSpaceOnUse" x="187.5" y="0.5" width="31" height="40">
			<feColorMatrix  type="matrix" values="1 0 0 0 0  0 1 0 0 0  0 0 1 0 0  0 0 0 1 0"/>
		</filter>
	</defs>
	<mask maskUnits="userSpaceOnUse" x="187.5" y="0.5" width="31" height="40" id="b_8_">
		<g class="st7">
			<path id="a_8_" class="st0" d="M0,40h249V0H0V40z"/>
		</g>
	</mask>
	<path class="st8" d="M218.5,40.5h-3.9L191.7,8.1v32.4h-4.2v-40h4l22.8,32v-32h4.2V40.5z M215.1,39.5h2.4v-38h-2.2v34.1L191,1.5
		h-2.5v38h2.2V4.9L215.1,39.5z"/>
	<defs>
		<filter id="Adobe_OpacityMaskFilter_4_" filterUnits="userSpaceOnUse" x="225" y="1" width="24" height="39">
			<feColorMatrix  type="matrix" values="1 0 0 0 0  0 1 0 0 0  0 0 1 0 0  0 0 0 1 0"/>
		</filter>
	</defs>
	<mask maskUnits="userSpaceOnUse" x="225" y="1" width="24" height="39" id="b_5_">
		<g class="st9">
			<path id="a_5_" class="st0" d="M0,40h249V0H0V40z"/>
		</g>
	</mask>
	<path class="st10" d="M225,40V1h24v3h-20.8v14.4h20.4v3h-20.4V37H249v3H225z"/>
	<defs>
		<filter id="Adobe_OpacityMaskFilter_5_" filterUnits="userSpaceOnUse" x="224.5" y="0.5" width="25" height="40">
			<feColorMatrix  type="matrix" values="1 0 0 0 0  0 1 0 0 0  0 0 1 0 0  0 0 0 1 0"/>
		</filter>
	</defs>
	<mask maskUnits="userSpaceOnUse" x="224.5" y="0.5" width="25" height="40" id="b_9_">
		<g class="st11">
			<path id="a_9_" class="st0" d="M0,40h249V0H0V40z"/>
		</g>
	</mask>
	<path class="st12" d="M249.5,40.5h-25v-40h25v4h-20.8V18h20.4v4h-20.4v14.4h20.8V40.5z M225.5,39.5h23v-2h-20.8V21h20.4v-2h-20.4
		V3.5h20.8v-2h-23V39.5z"/>
	<defs>
		<filter id="Adobe_OpacityMaskFilter_6_" filterUnits="userSpaceOnUse" x="76" y="1" width="37" height="38">
			<feColorMatrix  type="matrix" values="1 0 0 0 0  0 1 0 0 0  0 0 1 0 0  0 0 0 1 0"/>
		</filter>
	</defs>
	<mask maskUnits="userSpaceOnUse" x="76" y="1" width="37" height="38" id="b_7_">
		<g class="st13">
			<path id="a_7_" class="st0" d="M0,40h249V0H0V40z"/>
		</g>
	</mask>
	<path class="st14" d="M92.5,14c-1.2,0-2.1,1-2.1,2.2s1,2.2,2.1,2.2c1.2,0,2.1-1,2.1-2.2C94.7,15,93.7,14,92.5,14 M104,33.2
		l-16.3-9.9l-2.8-10c0,0-0.2-0.9,0-1.3c0.1-0.3,0.9-0.5,0.9-0.5l10-2.9c0,0,8.8,4.6,14.9,7.9C112.1,23.2,107.7,30.7,104,33.2
		 M97.6,36.4c-3.2-3.8-10-12-10-12l15.8,9.2C103.4,33.6,102.1,35.3,97.6,36.4 M90.7,36.1c-0.6-2.5-2.4-9.9-2.4-9.9l8.5,10.4
		C96.8,36.7,93,37.2,90.7,36.1 M94.5,1C84.3,1,76,9.5,76,20s8.3,19,18.5,19S113,30.5,113,20S104.7,1,94.5,1"/>
	<defs>
		<filter id="Adobe_OpacityMaskFilter_7_" filterUnits="userSpaceOnUse" x="75.5" y="0.5" width="38" height="39">
			<feColorMatrix  type="matrix" values="1 0 0 0 0  0 1 0 0 0  0 0 1 0 0  0 0 0 1 0"/>
		</filter>
	</defs>
	<mask maskUnits="userSpaceOnUse" x="75.5" y="0.5" width="38" height="39" id="b_10_">
		<g class="st15">
			<path id="a_10_" class="st0" d="M0,40h249V0H0V40z"/>
		</g>
	</mask>
	<path class="st16" d="M94.5,39.5c-10.5,0-19-8.7-19-19.5S84,0.5,94.5,0.5s19,8.7,19,19.5S105,39.5,94.5,39.5z M94.5,1.5
		c-9.9,0-18,8.3-18,18.5c0,10.2,8.1,18.5,18,18.5s18-8.3,18-18.5C112.5,9.8,104.4,1.5,94.5,1.5z M94.8,37.5c-1.4,0-3.1-0.1-4.5-0.8
		l-0.2-0.1l-0.1-0.2c-0.6-2.6-2.5-10.3-2.5-10.3l0.9-0.4L98,37.3l-0.9,0.1C97,37.4,96,37.5,94.8,37.5z M91,35.9
		c1.6,0.6,3.8,0.6,5,0.5L89,28C89.6,30.4,90.5,34.1,91,35.9z M97.9,36.6l-0.2-0.2C94.8,32.9,89,26,87.8,24.6l-0.4-0.3l-2.8-10.4
		c0-0.2-0.2-1.1,0-1.6c0-0.1,0.2-0.5,1.2-0.9l10.2-3l0.2,0.1c0.1,0,8.9,4.7,14.8,8l0.2,0.1l0,0.2c1.6,7.2-3.1,14.9-6.9,17.5
		l-0.3,0.2l-0.5-0.3c-0.9,0.6-2.5,1.6-5.3,2.2L97.9,36.6z M90.6,26.3c2.2,2.6,5.7,6.7,7.7,9.2c2.1-0.5,3.5-1.2,4.3-1.7L90.6,26.3z
		 M88.2,23.6l16.3,9.4c3.4-2.9,6.9-9.7,5.7-15.6c-5.5-3.1-13.1-7.1-14.4-7.8l-9.7,2.9c-0.2,0.1-0.5,0.2-0.6,0.3c0,0.3,0,0.8,0.1,1.1
		L88.2,23.6L88.2,23.6z M85.5,12.7L85.5,12.7L85.5,12.7z M92,18.5c-1.4,0-2.5-1.1-2.5-2.5s1.1-2.5,2.5-2.5s2.5,1.1,2.5,2.5
		S93.4,18.5,92,18.5z M92,14.5c-0.8,0-1.5,0.7-1.5,1.5c0,0.8,0.7,1.5,1.5,1.5s1.5-0.7,1.5-1.5C93.5,15.2,92.8,14.5,92,14.5z"/>
</g>
</svg>
